<?xml version="1.0" encoding="UTF-8" standalone="no"?>
<!-- Created with Inkscape (http://www.inkscape.org/) -->

<svg
   width="589.70569"
   height="490.8894"
   viewBox="0 0 589.70569 490.8894"
   version="1.1"
   id="svg1"
   xmlns="http://www.w3.org/2000/svg"
   xmlns:svg="http://www.w3.org/2000/svg">
  <defs
     id="defs1">
    <linearGradient
       id="tickGradient"
       x1="14.868113"
       y1="15.078469"
       x2="216.65581"
       y2="15.078469"
       gradientTransform="scale(0.96269654,1.0387489)"
       gradientUnits="userSpaceOnUse">
      <stop
         offset="0%"
         style="stop-color:#35CC38; stop-opacity:1"
         id="stop1" />
      <stop
         offset="50%"
         style="stop-color:#53CBB3; stop-opacity:1"
         id="stop2" />
      <stop
         offset="100%"
         style="stop-color:#66CCFE; stop-opacity:1"
         id="stop3" />
    </linearGradient>
  </defs>
  <g
     id="layer1"
     transform="translate(-239.80193,-8.5076751)">
    <g
       id="layer1-6"
       transform="matrix(2.3481667,0,0,2.3895528,200.29221,-59.713758)">
      <text
         x="125.79765"
         y="220.48932"
         font-family="Raleway, sans-serif"
         font-size="98.57px"
         fill="#274685"
         id="text3"
         transform="scale(1.0021112,0.99789324)"
         style="fill:#000000;fill-opacity:0;stroke-width:0.9857">olo</text>
      <ellipse
         id="circle"
         cx="78.595627"
         cy="170.83672"
         stroke="#white"
         fill="none"
         stroke-width="1.89253"
         style="fill:none;stroke:#000000;stroke-opacity:0"
         rx="60.823589"
         ry="62.198387" />
    </g>
    <g
       id="layer3"
       transform="matrix(2.2232919,0,0,2.2429551,203.80059,-27.064318)">
      <g
         transform="translate(-450.69368,-77.115073)"
         id="g3">
        <path
           d="m 45.5368,224.824 c -4.617,-0.667 -8.6327,-1.597 -8.9257,-2.069 -6.486476,-9.1938 -10.324491,-20.31941 -13.8524,-31.604 -7.6885,-24.995 -9.1854,-31.493 -8.1565,-35.437 1.5899,-6.082 15.3673,-14.663 23.9473,-14.927 6.9234,-0.208 7.7288,0.389 11.7557,8.707 2.3772,4.901 5.8639,12.719 7.7468,17.357 1.8829,4.638 3.867144,9.92511 4.933697,8.63951 C 90.491745,142.33529 136.52779,87.284341 173.20928,42.291566 185.0121,29.290368 192.89564,17.295069 204.30591,18.004473 220.63212,19.072204 134.17034,120.08313 82.796644,197.13578 67.61161,217.35942 67.024074,225.06295 45.5368,224.824 Z"
           fill="url(#tickGradient)"
           transform="matrix(1.2428,0,0,1,461,75)"
           clip-path="url(#tickClip)"
           id="path3"
           style="fill:url(#tickGradient)" />
      </g>
    </g>
  </g>
</svg>
